<?xml version="1.0" encoding="UTF-8"?>
<svg id="_Ñëîé_1" data-name="Ñëîé 1" xmlns="http://www.w3.org/2000/svg" viewBox="0 0 8000 1805.45">
  <defs>
    <style>
      .cls-1 {
        letter-spacing: 0em;
      }

      .cls-2 {
        fill: #fff;
      }

      .cls-3 {
        letter-spacing: -.01em;
      }

      .cls-4 {
        fill: #bacce2;
      }

      .cls-5 {
        fill: #7a9fcc;
      }

      .cls-6 {
        font-family: MyriadPro-Regular, 'Myriad Pro';
        font-size: 12px;
      }

      .cls-7 {
        fill: #d6dfee;
      }
    </style>
  </defs>
  <text class="cls-6" transform="translate(4697.78 969.98)"><tspan x="0" y="0">dbea</tspan><tspan class="cls-3" x="25.39" y="0">f</tspan><tspan class="cls-1" x="28.74" y="0">e</tspan></text>
  <path class="cls-7" d="M7922.41,737.37c-12.66-2.16-28.26-7.09-38.72-12.02-30.46-14.38-79.65-28.18-130.66-36.85-10.83-1.77-24.59-4.93-30.46-7.09-5.87-2.17-14.13-4.14-18.17-4.14s-10.83-2.17-14.86-4.73c-4.04-2.76-13.95-7.29-22.02-10.05-13.95-4.73-22.39-10.05-43.86-26.8-5.14-3.94-13.4-8.47-18.35-10.05-5.14-1.77-14.87-6.11-21.84-9.85-6.97-3.74-17.99-8.08-24.78-9.46-14.87-3.55-26.06-8.47-39.46-17.54-5.69-3.94-16.33-9.66-23.67-12.42-7.34-2.96-19.82-10.25-27.53-16.16-12.66-9.66-23.31-16.16-57.99-35.47-5.14-2.76-17.62-6.7-27.9-8.67-10.09-1.77-22.57-5.52-27.34-8.27-4.77-2.56-13.4-5.52-19.09-6.5-15.23-2.56-34.69-10.64-41.29-17.14-8.63-8.67-33.03-20.89-45.15-22.66-5.87-.98-18.9-5.52-29.18-10.05-10.28-4.73-29.18-11.04-42.21-14.38-15.42-3.74-27.53-8.28-35.42-13.6-8.26-5.32-17.07-8.67-28.81-10.64-12.3-1.97-17.8-4.14-20.74-8.08-5.87-8.08-12.11-10.25-31.75-12.02-23.49-2.17-39.09,1.57-57.99,13.6-8.26,5.13-24.04,12.42-35.24,15.96-11.19,3.74-27.9,11.04-37.44,16.55-9.54,5.32-31.38,16.35-48.63,24.43-24.04,11.43-33.77,17.34-41.66,25.82-10.28,10.64-10.83,10.84-25.33,10.84-17.8,0-38.17-6.5-54.14-17.14-8.08-5.32-16.7-8.47-27.53-10.25-8.63-1.38-26.61-6.11-39.82-10.64-13.21-4.53-28.81-9.06-34.32-10.05-5.69-.79-16.15-5.32-22.94-9.66-6.97-4.53-17.25-8.86-22.94-9.85-5.51-.79-11.38-2.56-12.66-3.74-1.47-1.38-8.81-3.94-16.52-5.72-7.52-1.97-19.82-6.31-27.34-9.85-46.43-21.48-61.66-26.8-85.7-29.16-13.4-1.38-33.4-4.14-44.78-6.31-16.33-2.96-45.88-4.14-138.74-4.93l-118.19-.98-23.49-8.67c-19.45-7.09-26.79-8.47-42.94-8.47-25.69,0-33.95,2.56-66.98,21.28l-27.9,15.76h-23.86c-21.1,0-24.59-.59-31.75-5.71-11.93-8.67-36.34-19.31-47.53-20.69-15.42-1.77-20.74.99-38.36,19.31-17.07,17.74-21.84,19.71-34.5,14.58-3.3-1.38-15.97-3.74-28.26-5.32-19.64-2.36-24.59-4.14-42.76-14.58-11.38-6.5-25.88-13.2-32.12-14.78-6.42-1.77-19.27-6.9-28.63-11.83l-17.25-8.67-106.26-.59c-71.75-.59-109.01-1.57-114.7-3.54-4.59-1.58-30.1-3.55-56.71-4.54-38.72-1.38-49.55-2.56-55.42-5.91-5.69-3.15-13.21-4.14-31.38-4.14-20.74,0-25.51.79-36.52,6.31-16.88,8.28-69.74,19.12-129.2,26.8-26.43,3.55-66.07,8.47-88.09,11.43-22.02,2.76-47.9,6.7-57.26,8.67-10.64,2.17-32.3,3.35-55.97,3.35l-38.54.2-14.31-8.67c-7.89-4.73-16.33-8.67-18.54-8.67s-10.28-4.53-17.8-9.85c-7.52-5.32-16.52-9.85-19.82-9.85s-12.3-3.15-19.82-7.09c-7.52-3.74-17.8-8.27-22.94-10.05-4.96-1.77-15.78-6.9-24.04-11.23-8.26-4.34-21.1-9.85-28.63-12.22-7.71-2.16-18.17-6.9-23.67-10.25-5.32-3.35-16.33-8.67-24.59-12.02-8.26-3.35-20.37-9.46-26.98-13.4-6.61-4.14-19.27-10.05-28.08-13.2-36.34-13.6-75.06-31.13-91.94-41.77-9.91-6.11-23.31-12.61-29.55-14.38-6.42-1.58-17.43-6.11-24.78-10.05-23.86-12.81-68.27-29.16-86.25-31.72-11.19-1.77-21.29-4.93-27.71-9.07-22.39-13.79-32.12-18.13-45.15-20.3-7.34-1.18-18.54-3.94-24.78-6.11-6.06-1.97-13.58-3.74-16.52-3.74s-14.5-3.74-25.51-8.47c-11.01-4.53-24.41-9.65-29.73-11.04-6.24-1.77-14.5-7.49-22.94-15.76-25.33-24.43-29.73-26.01-56.89-18.92-10.09,2.76-41.48,7.68-69.92,11.23-62.58,7.49-60.19,6.9-178.56,46.31-47.53,15.96-49.73,16.36-73.59,16.36h-24.59l-14.68-10.25c-8.07-5.72-28.63-17.93-45.51-27-16.88-9.26-32.3-18.33-34.32-20.3-2.2-1.97-8.99-6.31-15.6-9.85-6.42-3.35-14.68-9.07-18.35-12.42-3.85-3.35-16.88-11.23-29-17.34-12.11-6.31-27.71-16.35-34.68-22.46-19.27-16.75-24.22-18.33-59.46-18.33-29.73,0-31.38.2-46.06,7.68-10.83,5.52-22.39,8.67-39.82,11.23-14.31,2.17-30.46,6.31-38.36,9.85-43.31,19.71-53.59,23.65-77.26,30.15-14.31,3.94-32.12,9.65-39.82,12.41-7.52,2.96-21.1,6.31-30.1,7.49-9.73,1.38-23.67,5.72-34.69,11.04-17.07,7.88-20.19,8.67-40.74,8.67-14.86,0-28.26,1.58-39.82,4.93-35.24,9.66-59.64,14.78-71.76,14.78s-49.37,8.67-91.39,21.48c-13.21,4.14-31.2,9.26-39.64,11.43-8.63,2.17-23.67,7.69-33.4,12.42-9.91,4.53-26.61,10.25-37.25,12.61-10.64,2.37-22.76,5.72-26.98,7.69-5.32,2.36-17.62,3.35-39.27,3.35h-31.57l-10.09,9.46c-5.51,5.32-14.13,11.04-19.27,12.81-4.96,1.77-16.33,8.47-24.96,14.97-8.81,6.7-17.62,12.02-19.64,12.02-2.2,0-10.46,4.34-18.54,9.46-8.26,5.32-21.47,11.83-29.73,14.58-8.26,2.95-26.43,9.26-40.74,14.19-14.13,4.93-33.03,9.46-42.03,10.25-11.93,1.18-18.54,3.15-24.59,7.49-4.59,3.35-14.13,9.26-21.29,13.01-7.34,3.74-16.7,9.46-20.92,12.61-7.16,5.52-9.36,5.91-42.03,5.91-27.16,0-37.07-.98-47.53-4.53-10.83-3.74-18.72-4.53-42.58-3.74-26.61.98-30.28,1.57-41.48,7.88-6.97,3.94-18.72,13.99-26.43,22.47-7.71,8.67-17.62,17.54-22.02,19.9-4.4,2.36-11.38,6.9-15.42,10.25-6.97,5.72-8.44,5.91-36.7,5.12-26.98-.79-30.65-1.38-45.33-8.47-9.18-4.33-22.21-8.47-30.46-9.26-7.89-.98-24.96-5.52-37.8-9.85-13.03-4.53-28.08-9.06-33.58-9.85-5.32-.98-14.13-3.94-19.27-6.7-5.14-2.96-15.23-7.29-22.21-9.85-6.97-2.56-21.47-10.64-32.12-17.54l-19.64-13.01-37.07-.79c-34.32-.59-38.36-.2-55.42,5.52-9.91,3.35-26.79,7.88-37.44,10.05-10.46,2.16-25.33,5.52-32.85,7.49-24.04,6.11-31.57,6.5-45.88,2.37-7.52-2.17-18.54-4.93-24.41-6.11-5.69-1.18-15.97-5.91-22.76-10.25l-12.11-8.27h-135.8l-34.32,8.27c-29,7.09-40.56,8.47-72.86,9.66l-38.54,1.18-13.21,8.67c-8.26,5.32-17.8,9.26-26.24,10.44-7.16,1.18-14.31,2.96-15.97,3.94-1.47.98-17.25,2.76-35.05,3.55-29.91,1.77-33.22,1.38-46.98-3.75-8.26-3.15-21.1-9.65-28.63-14.58-7.52-4.93-14.5-8.87-15.6-8.87s-6.79-3.55-12.66-7.88c-7.71-5.71-13.95-8.08-22.76-8.86-11.38-.99-13.76-.2-31.2,10.64-10.28,6.31-23.49,15.77-29.18,20.49-10.83,9.66-17.25,14.38-43.86,33.3-9.36,6.7-20.19,15.37-24.04,19.31-4.59,4.73-16.7,10.84-33.4,17.34-24.04,9.26-28.45,10.05-58.18,11.63-28.63,1.58-34.68,2.76-56.16,10.64-13.21,4.93-31.75,10.25-40.92,11.82-11.93,1.97-23.49,6.31-39.46,14.78-24.78,13.4-32.67,14.58-54.69,8.67-6.97-1.97-20.19-4.34-29-5.32-19.27-1.97-26.61-5.13-49.18-20.49-9.54-6.5-21.47-13.4-26.43-15.17-13.76-4.73-46.43-4.33-55.61.79-6.97,4.14-7.52,4.14-11.38-.39-4.04-4.73-10.28-16.95-22.21-44.73-7.52-17.34-18.72-25.81-33.58-25.81s-21.66,4.73-33.58,23.84c-5.69,9.26-10.83,16.75-11.38,16.75-.37,0-4.96-8.67-9.91-19.31-13.95-29.75-25.88-42.17-40.37-42.17-3.12,0-15.6,5.72-27.34,12.61-23.49,13.79-43.31,32.32-97.63,91.24-17.07,18.33-33.03,34.68-35.6,35.86-2.39,1.38-12.85,3.35-22.94,4.14-19.09,1.58-17.8,1.97-39.82-11.43-3.85-2.56-14.31-5.13-23.67-5.91-13.58-1.18-19.45-.39-31.01,3.75-7.89,2.95-16.88,5.12-20,5.12-5.87,0-22.94-11.63-38.36-26.01-7.89-7.49-20.92-13.2-29.91-13.2-10.09-.2-20.37-8.67-28.08-23.45-15.6-29.56-29.36-37.64-52.12-30.34l-9.18,2.76-12.48-13.99c-14.86-16.75-23.67-21.28-41.29-21.28-3.7,0-6.82.22-9.66.74v1469.72h8000V764.86c-9.44-1.67-18.36-5.1-33-12.31-17.07-8.27-29.36-12.61-44.59-15.17Z"/>
  <path class="cls-4" d="M7961.31,518.94c-25.56,13.03-42.29,18.36-58.1,18.36-16.91,0-23.16-2.17-35.48-12.83-7.54-6.51-11.58-8.09-23.53-8.88-12.13-.79-16.36,0-26.29,5.53-16.55,8.88-29.23,10.46-44.12,5.13-11.95-4.15-13.79-4.15-50.93.4-6.25.79-16.36-.4-24.82-2.57-7.91-2.17-18.02-3.95-22.61-3.95s-11.58-1.97-15.44-4.54c-6.62-4.34-31.25-13.03-47.06-16.58-8.09-1.78-35.3-16.98-51.66-29.02-7.9-5.72-11.4-6.71-26.47-6.51-9.38,0-22.25,1.58-28.5,3.55-6.25,2.17-18.2,3.75-26.47,3.75-17.28.2-30.15,5.33-45.23,18.56-5.33,4.74-14.16,9.48-20.04,10.86-16.73,4.14-72.44,34.74-96.71,53.3-18.02,13.82-20.22,13.62-35.85-2.17l-13.42-14.02-26.11.2c-32.36,0-41.37,3.95-66.37,29.02-19.67,19.74-25,22.7-41,22.7-6.07,0-14.89,1.58-19.3,3.75-6.44,2.76-18.75,3.55-55.52,3.55-46.33,0-47.62.2-59.02,6.51-8.27,4.54-17.65,6.91-31.62,8.29-10.85,1.19-25.37,4.54-32.36,7.5-7.35,3.16-21.14,6.12-32.73,7.3-18.75,1.58-20.41,2.37-29.6,11.06-5.15,5.13-15.26,12.24-22.43,15.59-13.05,6.32-29.42,16.19-54.24,32.97-7.54,4.94-19.49,12.04-26.47,15.59-6.99,3.55-19.86,11.06-28.68,16.78l-16.18,10.46-50.74.79c-33.83.59-54.97-.2-63.24-2.17-6.8-1.58-21.88-3.36-33.64-3.95-20.22-1.18-22.25-.79-35.85,6.51-10.3,5.33-17.83,7.5-26.11,7.5-6.62,0-17.83,2.57-26.29,5.92-7.91,3.16-19.3,6.71-24.82,7.7-5.7.99-14.52,3.95-19.3,6.71-7.17,3.75-10.11,4.34-14.52,2.17-2.94-1.58-5.33-3.75-5.33-4.94,0-4.94-20.96-20.73-34.93-26.26-31.81-12.63-42.65-17.57-54.6-25.47-6.99-4.54-23.53-15-36.77-23.49l-24.08-15.2-101.12-1.18c-107.74-1.38-103.88-.79-120.05-14.02-4.04-3.16-12.87-6.91-19.67-8.29-6.62-1.38-16.18-5.53-21.33-9.28-4.96-3.95-16.36-11.65-25.37-17.37l-16.18-10.26h-50.56c-49.27,0-50.56-.2-62.88-6.51-6.99-3.55-25.74-11.65-41.37-18.36-15.81-6.51-38.61-16.39-50.37-21.91-11.95-5.72-35.67-15.2-52.95-21.32-17.1-6.12-36.95-14.81-43.76-19.15-24.64-15.2-42.84-23.49-61.04-27.44-10.11-2.17-24.27-7.3-31.44-11.25l-13.05-7.3h-51.29c-38.79,0-54.05.99-62.51,3.75-7.91,2.57-22.06,3.55-47.43,3.55h-36.22l-16.91,9.48c-18.57,10.46-39.9,19.15-52.95,21.32-4.78.79-13.97,5.53-20.78,10.46-6.62,4.74-19.86,11.84-29.23,15.6-9.56,3.75-24.45,10.46-33.09,15-11.4,5.72-20.96,8.49-34.56,9.87-10.3,1.18-22.8,3.16-27.76,4.54-13.42,3.75-33.28,3.16-46.15-.99-7.54-2.57-21.51-3.75-41.37-3.75-29.78,0-30.15,0-39.16-7.3-4.96-4.14-10.3-7.5-11.77-7.5s-7.35-4.94-12.87-11.06l-10.3-11.25h-39.34c-35.85,0-42.1.79-68.21,7.5-15.63,3.95-34.56,10.66-41.73,14.81-7.35,3.95-14.71,7.3-16.55,7.5-6.99,0-32.36,9.67-40.81,15.6-4.78,3.16-13.42,7.7-18.94,9.67-52.58,18.75-80.89,26.45-97.81,26.45-10.3,0-16.55,1.97-31.07,9.67-10.11,5.33-23.72,10.27-30.34,11.25-6.62.99-17.65,3.36-24.27,5.33-8.46,2.57-19.86,3.55-37.51,2.96l-25.37-.79-12.69-14.81c-6.99-8.29-16.73-19.54-21.69-25.27l-9.01-10.27-54.42-.79c-54.05-.79-54.79-.99-67.29-7.5-6.99-3.75-15.44-6.71-18.75-6.71-3.31-.2-10.3-1.78-15.63-3.75-7.54-2.96-20.78-3.75-55.34-3.75h-45.41l-16.73-15c-22.98-20.53-26.11-22.11-48.54-22.11h-19.12l-17.1-19.35c-9.56-10.86-19.67-20.73-22.43-22.31-7.91-4.34-68.58-3.36-87.33,1.18-11.95,3.16-25,3.75-56.99,3.16-39.71-.99-41.73-1.18-53.32-7.7-6.62-3.75-20.41-10.07-30.89-14.21-16.18-6.32-22.06-7.3-41.55-7.3-17.47,0-28.68-1.58-48.35-7.11-14.16-3.95-31.81-7.7-39.16-8.69-7.35-.79-18.2-4.34-24.08-7.7-5.88-3.36-12.69-6.12-14.89-6.12-5.33,0-15.99-5.92-19.86-11.06-1.84-2.17-6.62-3.75-11.4-3.75s-14.52-3.36-22.06-7.5c-7.72-3.95-17.1-7.3-20.96-7.3-4.23,0-11.03-2.96-16.91-7.7-13.79-10.66-23.35-14.61-36.59-14.61-10.66,0-46.15,8.69-61.22,15-3.68,1.58-13.6,4.15-21.88,6.12-8.09,1.78-27.76,9.48-43.57,17.18-52.95,25.86-59.02,28.43-67.47,28.43-4.6,0-13.42,2.57-19.3,5.72-6.07,3.36-15.08,6.71-20.04,7.7-5.15.99-19.67,4.94-32.17,8.88-56.26,17.57-73.36,22.11-84.76,22.11-6.8,0-16.73,1.58-22.25,3.75-14.16,5.33-129.61,5.33-141.56,0-6.62-2.96-19.12-3.75-60.3-3.75h-52.03l-30.52,11.05c-16.91,6.12-39.71,15.59-50.56,21.12-22.25,11.45-32.91,15.2-57.18,20.53-9.01,1.97-23.53,6.91-32.17,11.05-8.64,3.95-20.22,8.09-25.92,9.08-5.52.99-18.75,4.94-29.23,8.88-15.81,5.92-22.8,7.11-40.63,7.11-13.24,0-25.37,1.38-31.44,3.75-13.97,5.33-102.22,5.33-113.99,0-4.6-2.17-12.87-3.75-18.38-3.75s-13.79-1.78-18.38-3.75c-11.4-5.13-68.76-5.13-84.57,0-7.91,2.76-22.25,3.75-49.46,3.75-36.59,0-39.16.39-57.73,7.3-20.41,7.7-37.87,9.48-46.51,4.54-2.76-1.58-12.5-9.87-21.69-18.36l-16.73-15.79h-47.62c-45.59,0-49.46.4-88.98,8.88-22.8,4.94-45.96,11.05-51.85,13.42-5.7,2.57-15.63,5.13-21.88,6.12-6.25.99-18.75,3.16-27.95,5.13-9.01,1.97-25.19,3.55-35.67,3.55-10.48.2-25.19,1.78-32.73,3.75-11.4,2.96-41.92,3.55-173.19,3.55-108.47,0-160.68.99-163.81,2.76-2.57,1.38-7.91,2.76-11.77,2.76-6.43.2-10.11-2.76-28.5-24.08l-21.14-24.48-43.76-1.38c-43.2-1.18-43.76-1.18-50.19-7.7-15.44-15.4-54.6-36.72-67.66-36.72-5.88,0-25-13.23-43.39-29.61-6.8-6.32-17.65-14.02-23.9-16.98-6.25-2.96-14.89-8.1-19.12-11.65-4.23-3.55-13.61-8.88-20.96-11.84-7.17-3.16-21.88-11.25-32.73-18.16-10.66-7.11-24.45-15-30.52-17.96-6.25-2.96-15.81-8.49-21.69-12.44-5.7-3.95-11.95-7.11-13.79-7.11s-14.89-7.11-28.86-15.79c-13.97-8.49-31.25-18.75-38.06-22.5-6.99-3.75-18.75-13.03-26.47-20.92-15.08-15.2-34.56-27.83-47.25-30.8-4.41-.99-12.32-4.54-17.47-7.7-5.33-3.36-12.69-5.92-16.55-5.92s-10.48-1.78-14.89-3.75c-15.26-6.91-29.78-4.94-49.82,6.71l-17.83,10.46-12.32-6.71c-11.21-6.12-14.89-6.71-36.95-6.71-13.42,0-26.84-.99-29.78-2.17-2.94-1.18-11.58-8.88-19.12-17.18-10.48-11.05-16-15.2-22.98-16.58-13.97-2.76-18.75.99-34.01,27.64-2.21,3.95-6.43,10.66-9.56,15-3.13,4.74-6.07,13.62-7.17,20.92-2.02,16.38-14.16,32.77-27.03,37.11-6.07,1.78-12.32,6.91-19.3,15.6-5.7,7.11-16.36,17.57-23.53,23.29-15.08,11.65-17.65,16.19-19.12,32.57-.55,6.71-3.13,14.21-6.07,18.16-6.62,9.28-30.7,28.62-46.15,37.51-57.73,32.97-78.87,47.77-91.19,63.76-4.78,6.12-18.57,19.15-30.34,29.02l-21.51,17.57-29.05,1.38c-15.99.59-30.52,2.17-32.54,3.55-1.84,1.38-33.28,3.16-73.36,3.75l-70.23,1.38-27.58,13.03c-15.08,7.11-40.45,19.54-56.26,27.64-15.81,7.9-40.08,17.96-54.05,22.11-13.79,4.34-30.34,9.28-36.59,11.25-6.43,1.97-14.16,3.55-17.47,3.55s-20.09,5.67-35.9,11.85v1125.42h8000V485.17c-18.68,20.88-25.68,27.07-38.69,33.77Z"/>
  <path class="cls-5" d="M7945.1,675.74c-37.57,22.04-39.22,22.83-54.98,27.16-8.25,2.16-19.43,7.08-24.92,11.02-14.84,10.43-30.79,13.58-45.45,8.85-15.21-4.92-20.53-3.15-42.15,12.79-16.49,12.2-17.59,12.59-32.62,12.59-8.8,0-18.14-1.57-21.81-3.54-3.48-1.97-12.83-5.71-21.08-8.66-8.06-2.75-19.79-8.85-26.02-13.58-6.23-4.72-12.46-8.66-13.93-8.66s-8.8-3.54-16.31-7.87c-12.65-7.48-15.03-8.07-41.6-8.86-39.04-1.38-45.08,0-59.93,12.99-9.16,8.07-13.74,10.63-17.59,9.64-5.32-1.57-26.02,7.08-26.02,10.63s-18.33,13.58-33.17,18.1c-7.51,2.36-24.56,8.27-37.94,13.18-23.83,8.66-24.19,8.66-63.41,8.66h-39.4l-14.3-15.94c-16.31-18.3-22.18-20.86-48.38-20.86-15.58,0-20.34,1.18-39.95,10.04-34.64,15.74-80.64,32.27-108.31,38.96-16.5,4.13-135.8,3.15-152.3-1.18-8.98-2.16-25.84-3.54-48.2-3.35-28.77,0-36.29.79-46.92,4.92-37.39,14.96-44.72,16.92-61.21,16.92-19.24,0-28.41,3.54-39.04,14.56-6.23,6.49-9.16,7.67-18.33,7.67-5.86-.2-17.04-1.77-24.56-3.74-18.14-4.72-60.66-4.72-70.93-.2-6.41,2.95-30.61,19.68-46.92,32.86-2.75,1.97-7.51,2.56-15.03,1.38-8.61-1.18-13.56-3.93-22.54-12.59-11.91-11.22-36.65-24.99-45.08-24.99-2.57,0-8.43,3.54-13.2,8.07-10.45,9.64-26.39,21.45-29.32,21.45-1.1,0-12.46,5.31-25.11,12-74.41,38.96-85.59,44.08-112.71,50.38-19.06,4.53-54.8,5.12-64.14,1.18-3.48-1.57-14.66-3.54-24.74-4.53-14.84-1.38-23.46-4.33-45.63-14.56-15.21-7.08-30.06-15.35-33.35-18.69-3.12-3.15-8.61-7.08-12.1-8.46-10.45-4.33-99.33-3.35-112.89.98-7.33,2.36-21.08,3.74-38.3,3.74-24.01,0-28.59.79-41.24,6.49-26.94,12.4-43.62,15.55-79.54,15.55s-49.12-2.17-115.09-18.7c-19.79-4.92-38.67-3.54-47.1,3.54-15.39,12.99-30.97,20.66-51.5,25.19-25.29,5.71-44.72,5.9-87.6,1.18-19.98-2.17-57.18-3.54-98.78-3.74-61.21,0-67.99.39-82.47,5.12-8.61,2.75-19.98,7.87-25.29,11.02-10.63,6.69-31.52,8.26-40.32,3.15-2.75-1.57-13.38-3.74-23.46-4.72-12.65-1.18-25.11-4.53-40.14-10.82-15.39-6.49-27.67-9.64-42.34-11.22-11.36-1.18-24.19-3.35-28.59-4.72-4.4-1.38-10.63-2.56-13.93-2.56s-15.39-3.35-26.94-7.28c-20.34-7.28-21.81-7.48-67.26-7.48s-47.47-.2-70.56-7.28c-13.2-4.13-29.14-7.48-35.55-7.48-13.38,0-43.62-7.48-58.46-14.36-5.68-2.56-13.93-5.51-18.33-6.49-4.4-.99-13.93-6.1-21.44-11.41-7.33-5.31-14.48-9.45-15.76-9.45s-8.25-6.1-15.39-13.38c-10.45-10.63-21.26-17.71-51.87-33.85l-38.67-20.46-58.28-1.77c-47.28-1.57-70.56-3.54-120.41-10.82-33.9-4.92-71.11-9.64-82.47-10.63-11.36-.98-21.81-2.36-23.28-3.35s-8.61-2.75-15.94-4.13c-30.97-5.51-44.35-10.03-59.75-20.66-21.99-15.15-26.76-16.33-64.14-16.33s-41.24.98-62.5,20.66c-8.25,7.48-22.18,19.68-31.16,27.16-8.8,7.48-20.53,20.07-25.66,28.14-11,16.53-23.46,25.38-51.32,35.62-15.76,5.9-36.47,16.33-71.48,36.6-8.06,4.53-15.21,6.69-23.27,6.69-9.16,0-13.56,1.57-21.26,7.67l-9.53,7.67-16.68-7.48c-25.84-11.41-40.14-15.15-58.28-15.15-16.31,0-32.07,5.31-36.1,12.2-.73,1.18-6.78,5.71-13.56,9.84l-12.28,7.48h-36.47c-25.84,0-39.95-.98-47.83-3.74-6.23-1.97-14.66-3.54-18.88-3.54-6.96,0-26.21-4.72-43.99-10.43-4.4-1.57-23.46-3.35-42.33-4.13l-34.45-1.57-13.74-9.64c-7.51-5.31-17.23-13.38-21.81-17.71-4.4-4.33-13.2-12.2-19.79-17.32-6.41-5.12-18.14-14.56-25.84-20.86-10.45-8.66-16.68-12-24.74-13.18-12.83-1.77-24.56-6.89-41.42-17.71-6.78-4.33-17.23-9.64-22.91-11.61-5.86-2.17-15.76-6.69-21.99-10.04-9.9-5.31-14.11-6.1-35.19-6.1-13.01,0-29.69-1.57-36.84-3.35-7.15-1.77-21.08-5.31-31.16-7.67-10.08-2.36-27.49-7.48-38.49-11.41-11.36-3.94-25.11-7.08-31.71-7.08-12.65,0-30.79-6.69-60.48-22.04-10.08-5.11-22.73-10.82-28.04-12.2-5.31-1.57-15.76-6.69-23.28-11.61-7.51-4.72-21.81-10.82-31.52-13.58-9.9-2.56-23.82-6.89-31.16-9.64-11.36-4.13-19.61-4.72-64.14-4.72h-50.95l-11.91-8.66c-6.6-4.72-18.14-10.04-25.84-12-7.7-1.97-16.49-5.31-19.61-7.48-5.68-3.93-36.29-16.73-51.5-21.45-4.4-1.18-11-3.54-14.84-5.12-3.67-1.38-26.94-3.35-51.5-4.33-43.44-1.77-45.27-1.97-69.83-11.02-13.93-4.92-32.26-10.04-40.87-11.02-11.73-1.57-21.63-5.11-39.4-14.36-21.44-11.22-26.21-15.15-48.93-39.36-17.41-18.5-27.12-31.09-31.89-41.33-11-23.22-20.89-30.5-41.42-30.5-8.06,0-13.2,1.57-18.88,5.9-4.22,3.35-19.61,13.18-34.09,22.24l-26.39,16.14h-28.04c-32.26,0-41.24,2.75-47.83,14.56-2.38,4.33-9.71,11.81-16.31,16.73-6.6,4.92-12.1,9.64-12.1,10.43,0,2.95-13.01,9.84-23.64,12.4-5.86,1.38-20.53,3.54-32.44,4.92-13.75,1.57-26.94,4.72-35.37,8.66-11.36,5.12-17.41,6.1-35.19,6.1-12.1,0-25.66,1.57-31.52,3.54-5.5,1.97-13.93,4.13-18.51,4.92-4.77.79-13.38,5.12-19.61,9.64-33.54,24.6-98.23,49.98-141.48,55.89-15.21,1.97-39.04,10.23-44.53,15.55-2.02,1.77-8.25,5.9-13.93,8.86-5.68,2.95-14.48,9.05-19.43,13.58-5.13,4.33-15.76,12.4-23.83,18.1-12.1,8.46-16.68,10.23-26.02,10.23-14.11,0-16.68,1.38-40.69,24.01-10.63,10.04-23.09,20.07-27.49,22.04-4.4,1.97-12.46,6.89-17.96,11.02-5.5,3.93-18.33,10.04-28.41,13.38-18.69,6.3-47.28,21.25-60.11,31.68-6.6,5.31-32.07,15.94-38.49,15.94-4.03,0-35,15.94-43.8,22.63-6.6,5.31-10.26,5.71-57.55,7.08-48.75,1.38-50.77,1.57-61.76,7.87-6.41,3.54-13.75,6.49-16.68,6.49-2.75,0-8.98,1.77-13.75,3.54-4.77,1.97-17.41,4.13-28.04,4.72-16.13.79-23.46,2.76-42.7,11.22-19.43,8.46-25.66,10.23-39.22,10.23-8.8,0-20.34-1.77-25.66-3.74-7.7-2.95-21.44-3.74-61.03-3.74h-50.95l-28.22,11.02c-15.39,6.3-35.37,15.94-44.17,21.65l-16.13,10.43-170.44.59c-153.58.59-171.54.2-180.34-3.35-14.3-5.9-46.18-3.93-61.58,3.74-7.88,3.94-17.41,6.1-30.06,6.89-20.89,1.38-29.32-1.77-37.39-13.78-6.96-10.43-17.96-14.96-36.29-14.96s-35.37,5.51-56.45,18.1c-23.46,14.17-36.1,16.73-89.62,18.5l-48.02,1.77-18.33,9.64c-18.33,9.64-18.51,9.64-52.78,11.02-18.88.79-36.1,2.36-38.49,3.54-2.2.98-10.81,12.99-18.88,26.37l-14.84,24.4-12.28-1.57c-14.11-1.97-26.21,1.38-32.44,8.66-8.06,9.64-30.61,19.68-44.35,19.68-6.96.2-15.39,1.77-18.51,3.74-3.12,1.97-8.06,3.54-11,3.54s-12.46,3.34-21.08,7.48l-15.58,7.48h-48.93c-47.83,0-62.13-1.57-92.37-10.43-5.13-1.38-21.26-3.15-36.1-3.74l-13.56-.59v798.92h8000V638.64c-6.45,7.46-20.22,16.91-54.9,37.1Z"/>
  <path class="cls-2" d="M7901.45,1084.55c-37.67,29.99-64.87,45.58-86.92,49.73-4.96.79-13.78,4.14-19.48,7.1-5.7,3.16-12.86,6.31-15.99,7.3-3.31.99-13.97,5.72-24.07,10.65-13.05,6.32-23.52,9.28-37.86,10.85-11.95,1.38-24.44,4.74-31.98,8.29-11.03,5.33-15.62,6.12-40.24,6.12-26.46,0-38.41-1.78-72.59-11.25-8.27-2.17-15.44-2.76-20.77-1.38-18.38,4.54-63.58,34.14-84.72,55.45-23.71,23.88-23.52,23.68-47.41,23.68-12.13,0-27.57-1.58-35.65-3.95-24.81-6.71-47.96,1.78-62.66,23.09-4.41,6.51-10.84,14.6-14.15,17.96-3.49,3.35-12.5,14.21-20.03,24.07-7.53,9.87-14.89,17.76-16.54,17.76s-7.53-2.17-13.05-4.74c-16.17-7.7-31.61-8.68-51.46-3.75l-17.27,4.34-12.13-7.1c-10.11-6.12-14.33-7.1-28.12-6.9-10.84.2-20.4,1.97-29.77,5.92-12.5,5.13-18.74,5.92-67.81,7.3-53.48,1.38-54.03,1.58-64.32,8.09-5.7,3.75-11.95,6.71-13.97,6.71-5.15,0-42.63-26.84-57.15-41.04-6.98-6.91-15.8-14.21-19.85-16.38-3.86-2.17-11.58-7.89-17.09-12.63-5.7-4.93-15.44-13.42-21.69-18.74-27.93-24.27-55.5-40.06-74.98-43.41-5.51-.79-14.52-4.34-20.03-7.89-8.27-5.13-13.97-6.31-32.16-7.3-26.46-1.38-37.3,1.38-52.37,13.22-23.52,18.15-31.79,23.28-38.04,23.28-9.74,0-24.26-7.1-43.18-21.11-24.26-18.15-30.51-20.92-47.78-22.49-11.39-.99-17.64-.39-24.26,2.56-6.25,2.76-15.99,3.95-32.89,3.95-20.4,0-25.36-.79-34.73-5.72-24.62-13.22-33.63-15.19-72.77-15.19-34.92.2-37.49.4-51.09,6.91-13.05,6.12-16.72,6.71-44.1,6.71-16.36,0-32.71-1.18-36.2-2.76-3.49-1.38-15.8-3.16-27.2-3.95-13.23-.99-23.71-2.96-29.22-5.92-4.59-2.57-15.07-7.3-22.97-10.66-34.92-14.21-39.69-16.38-47.78-22.49-4.78-3.35-14.7-8.29-22.05-10.66-7.35-2.56-17.64-6.71-22.79-9.67-5.15-2.76-16.17-7.5-24.44-10.26-8.27-2.96-19.66-8.48-25.36-12.23-5.7-3.95-15.07-9.47-20.95-12.23-5.88-2.76-21.13-12.43-34-21.7l-23.52-16.77h-38.04c-34.92,0-38.96.39-50.54,5.72-6.98,3.35-15.44,8.09-18.74,10.46-5.15,3.95-10.47,4.74-35.1,4.74s-30.87-.79-46.68-6.71c-17.46-6.51-18.93-6.71-84.9-7.69-44.29-.59-72.22.2-82.7,1.97-32.53,5.92-36.57,5.92-44.1.39-9.56-7.3-29.59-11.05-43.37-8.09-20.4,4.74-40.8,11.84-54.95,19.73l-14.33,7.7h-42.63c-37.31,0-45.02-.59-63.77-5.72-41.16-11.44-62.11-15-87.84-15.19-22.42,0-26.83.79-39.14,6.71-7.53,3.55-20.4,7.7-28.48,9.08-9.37,1.78-19.48,5.72-28.3,11.25-8.27,5.33-16.54,8.68-21.13,8.68-11.58,0-27.01-8.09-45.39-23.68-23.52-20.32-25.54-20.72-114.85-20.72h-75.16l-15.62-6.51c-14.33-5.92-18.93-6.51-62.66-7.89l-47.04-1.58-18.38-9.87-18.38-9.87h-49.43c-45.39,0-50.35.4-61.93,5.33-6.98,3.16-21.68,8.29-32.53,11.84-23.15,7.3-77.55,35.71-121.47,63.14-32.53,20.52-42.27,24.27-49.98,19.93-2.57-1.58-12.86-3.75-22.79-4.93-13.97-1.58-20.4-3.75-29.03-9.67-12.68-8.68-28.12-12.83-46.68-12.83h-12.68l-19.3-19.93c-28.3-29.01-31.24-30.19-88.21-31.77l-47.23-1.38-18.01-8.29c-11.58-5.33-22.97-13.22-31.79-21.51-24.81-23.87-39.33-28.02-94.27-28.22-32.34,0-34.73-.2-45.94-6.51-10.66-5.72-15.62-6.71-40.43-7.7l-28.3-1.18-17.64-13.22c-27.57-20.72-39.88-28.02-47.78-28.02s-90.23,41.83-95.37,48.54c-1.65,2.17-8.82,6.71-15.62,10.06-6.98,3.16-14.33,7.5-16.17,9.28-1.84,1.78-12.68,6.51-24.07,10.46-11.39,3.95-27.38,10.85-35.65,15.39-8.09,4.34-21.5,10.66-29.4,14.01-8.09,3.16-18.38,7.89-22.97,10.26-4.78,2.57-12.31,5.33-16.91,6.31-11.39,2.17-24.62,12.43-37.86,29.2-6.06,7.89-12.68,14.21-14.89,14.21s-8.82-2.76-15.07-6.12c-7.35-4.14-17.83-6.91-30.87-8.49-10.84-1.38-25.18-4.34-31.61-6.51-11.21-3.95-14.15-3.95-49.07.2-20.58,2.37-65.24,5.13-99.42,6.12-54.03,1.38-65.24,2.56-88.39,7.89-14.52,3.55-31.61,7.1-37.86,8.09-6.25.79-20.21,4.14-31.06,7.3-10.66,3.16-23.71,6.51-28.67,7.5-5.15.79-15.99,4.74-24.07,8.49-32.16,14.8-52.37,22.89-68.36,27.43-9,2.57-21.32,7.3-27.56,10.46-13.42,7.3-44.29,18.15-57.15,19.93-5.15.79-18.01,5.92-28.85,11.25-10.84,5.33-25.18,10.85-31.98,12.04-6.98,1.38-17.64,4.74-23.89,7.3-6.43,2.76-16.72,5.72-22.97,6.71-6.25.99-13.97,3.16-17.27,4.74-3.12,1.78-12.86,5.13-21.5,7.5-8.64,2.56-20.77,8.29-27.38,13.22-6.43,4.74-16.17,10.06-21.5,11.84-5.33,1.78-12.5,5.13-15.99,7.5-12.86,9.08-33.45,11.44-109.34,12.43l-72.96.99-18.93-10.46c-18.38-10.06-19.85-10.46-45.39-11.44-29.22-1.18-30.87-1.78-64.13-23.48l-19.11-12.63-26.83-.99c-19.85-.79-30.51,0-41.35,2.96-20.4,5.72-36.39,5.13-46.13-1.38-18.56-12.04-31.42-10.46-52.19,6.91-25.54,21.51-33.45,23.68-59.36,16.18-5.7-1.78-38.41-2.76-87.47-2.76-72.77-.2-78.84-.39-83.8-4.74-14.52-12.04-36.2-18.15-45.94-12.63-2.39,1.38-15.99,5.33-30.14,8.68-14.33,3.35-34.92,10.06-46.13,14.8l-20.03,8.49h-45.39c-47.41,0-65.24-2.96-80.31-13.62-3.31-2.37-12.13-5.72-19.85-7.7-7.72-1.97-25.36-9.47-39.51-16.97-13.97-7.3-26.83-13.42-28.67-13.42s-8.45-3.16-14.88-7.1c-17.64-10.65-29.04-17.56-36.75-22.49-3.68-2.37-9.74-5.13-13.42-5.92-3.49-.99-10.29-4.34-14.89-7.3-4.59-3.16-14.7-8.09-22.6-11.05-7.72-2.76-19.66-7.89-26.28-11.25-12.13-5.92-56.42-21.31-61.56-21.31-2.57,0-34.18-12.63-55.5-22.1-5.7-2.56-18.74-6.51-28.67-8.68-10.11-2.17-25.18-7.7-33.63-12.43-8.45-4.74-17.27-8.49-19.48-8.68-4.23,0-6.06-.79-38.59-14.6-23.71-9.87-54.39-12.63-76.63-6.51-10.47,2.96-24.81,3.95-52.19,3.95-35.47,0-38.59-.4-53.11-6.51-11.94-5.13-19.3-6.71-34-6.71-17.09-.2-19.3.39-30.14,7.69-6.43,4.54-12.68,8.09-13.78,8.09-1.29,0-6.8,3.16-12.5,6.91-12.86,8.68-33.81,17.56-61.93,26.44-11.94,3.75-29.59,11.64-38.96,17.56-9.56,5.72-28.12,14.4-41.35,18.94-21.13,7.3-28.12,8.48-55.13,9.67-45.39,1.78-56.23,6.9-103.46,47.55-23.71,20.52-19.48,19.34-48.7,14.6-10.11-1.58-11.76-.99-21.5,6.51-5.88,4.74-16.72,14.01-24.07,20.72-26.46,24.27-34.73,30.78-38.59,30.78-6.43,0-26.09,7.69-33.26,13.02-3.49,2.56-12.31,6.31-19.66,8.09-7.35,1.97-16.91,5.52-21.13,8.29-7.17,4.34-13.23,4.93-70.93,5.72l-63.22.99-18.19,9.47c-11.76,6.31-22.42,10.06-30.32,10.65-11.58,1.19-13.05.59-22.6-7.89-19.48-17.17-44.1-24.66-58.99-17.96-4.41,1.97-14.15,9.67-21.68,16.97-13.97,13.81-28.12,24.86-42.27,33.15-7.17,4.14-15.07,4.74-67.99,5.92l-59.91,1.18-9.37,6.71c-5.15,3.75-12.13,7.5-15.25,8.29-1.1.26-2.78.81-4.8,1.53v469.96h8000v-828.2c-.39.51-.77,1.02-1.15,1.54-27.38,36.31-74.43,87.41-97.4,105.76Z"/>
</svg>