{
  "accessors": [
    {
      "bufferView": 2,
      "componentType": 5126,
      "count": 387,
      "max": [
        5.215076446533203,
        1.1117992401123047,
        7.182173728942871
      ],
      "min": [
        -5.215073585510254,
        -0.009694278240203857,
        -5.215074062347412
      ],
      "type": "VEC3"
    },
    {
      "bufferView": 2,
      "byteOffset": 4644,
      "componentType": 5126,
      "count": 387,
      "max": [
        0.9817390441894531,
        1.0,
        0.9868936538696289
      ],
      "min": [
        -0.977505087852478,
        -1.0,
        -0.9775050282478333
      ],
      "type": "VEC3"
    },
    {
      "bufferView": 1,
      "componentType": 5126,
      "count": 387,
      "max": [
        1.9221874475479126,
        0.8645500540733337
      ],
      "min": [
        0.047645509243011475,
        0.02394002676010132
      ],
      "type": "VEC2"
    },
    {
      "bufferView": 0,
      "componentType": 5125,
      "count": 1632,
      "type": "SCALAR"
    },
    {
      "bufferView": 2,
      "byteOffset": 9288,
      "componentType": 5126,
      "count": 488,
      "max": [
        5.087423324584961,
        4.391594409942627,
        3.379441499710083
      ],
      "min": [
        -3.467045545578003,
        0.5243322849273682,
        -3.757084369659424
      ],
      "type": "VEC3"
    },
    {
      "bufferView": 2,
      "byteOffset": 15144,
      "componentType": 5126,
      "count": 488,
      "max": [
        0.9987686276435852,
        0.9903547167778015,
        0.9999070763587952
      ],
      "min": [
        -0.9723182320594788,
        -0.9996358156204224,
        -0.9999070763587952
      ],
      "type": "VEC3"
    },
    {
      "bufferView": 1,
      "byteOffset": 3096,
      "componentType": 5126,
      "count": 488,
      "max": [
        0.9734622836112976,
        0.9834964871406555
      ],
      "min": [
        0.02763715386390686,
        0.03146795183420181
      ],
      "type": "VEC2"
    },
    {
      "bufferView": 0,
      "byteOffset": 6528,
      "componentType": 5125,
      "count": 2238,
      "type": "SCALAR"
    },
    {
      "bufferView": 2,
      "byteOffset": 21000,
      "componentType": 5126,
      "count": 416,
      "max": [
        3.3932368755340576,
        5.85582160949707,
        3.346813201904297
      ],
      "min": [
        -3.3835229873657227,
        3.8156330585479736,
        -3.479982376098633
      ],
      "type": "VEC3"
    },
    {
      "bufferView": 2,
      "byteOffset": 25992,
      "componentType": 5126,
      "count": 416,
      "max": [
        0.999255895614624,
        0.9999995231628418,
        0.9962515830993652
      ],
      "min": [
        -0.9995266795158386,
        -0.9145727157592773,
        -0.9091770052909851
      ],
      "type": "VEC3"
    },
    {
      "bufferView": 1,
      "byteOffset": 7000,
      "componentType": 5126,
      "count": 416,
      "max": [
        1.8296780586242676,
        0.9602762460708618
      ],
      "min": [
        0.023375988006591797,
        0.01905849575996399
      ],
      "type": "VEC2"
    },
    {
      "bufferView": 0,
      "byteOffset": 15480,
      "componentType": 5125,
      "count": 1908,
      "type": "SCALAR"
    }
  ],
  "asset": {
    "extras": {
      "author": "NoodleBaguette (https://sketchfab.com/NoodleBaguette)",
      "license": "CC-BY-4.0 (http://creativecommons.org/licenses/by/4.0/)",
      "source": "https://sketchfab.com/3d-models/matcha-latte-cat-hand-painted-27d8f85e90a54e32b29e0449dd9ff243",
      "title": "Matcha Latte Cat | Hand-Painted"
    },
    "generator": "Sketchfab-16.33.0",
    "version": "2.0"
  },
  "bufferViews": [
    {
      "buffer": 0,
      "byteLength": 23112,
      "name": "floatBufferViews",
      "target": 34963
    },
    {
      "buffer": 0,
      "byteLength": 10328,
      "byteOffset": 23112,
      "byteStride": 8,
      "name": "floatBufferViews",
      "target": 34962
    },
    {
      "buffer": 0,
      "byteLength": 30984,
      "byteOffset": 33440,
      "byteStride": 12,
      "name": "floatBufferViews",
      "target": 34962
    }
  ],
  "buffers": [
    {
      "byteLength": 64424,
      "uri": "scene.bin"
    }
  ],
  "images": [
    {
      "uri": "textures/Saucers_etcMAT1_baseColor.png"
    },
    {
      "uri": "textures/LatteMAT1_baseColor.png"
    }
  ],
  "materials": [
    {
      "doubleSided": true,
      "name": "Saucers_etcMAT1",
      "pbrMetallicRoughness": {
        "baseColorTexture": {
          "index": 0
        },
        "metallicFactor": 0.0,
        "roughnessFactor": 0.6
      }
    },
    {
      "doubleSided": true,
      "name": "Saucers_etcMAT",
      "pbrMetallicRoughness": {
        "baseColorTexture": {
          "index": 0
        },
        "metallicFactor": 0.0,
        "roughnessFactor": 0.6
      }
    },
    {
      "doubleSided": true,
      "name": "LatteMAT1",
      "pbrMetallicRoughness": {
        "baseColorTexture": {
          "index": 1
        },
        "metallicFactor": 0.0
      }
    }
  ],
  "meshes": [
    {
      "name": "MatchaLatteMerged_Saucers_etcMAT1_0",
      "primitives": [
        {
          "attributes": {
            "NORMAL": 1,
            "POSITION": 0,
            "TEXCOORD_0": 2
          },
          "indices": 3,
          "material": 0,
          "mode": 4
        }
      ]
    },
    {
      "name": "MatchaLatteMerged_Saucers_etcMAT_0",
      "primitives": [
        {
          "attributes": {
            "NORMAL": 5,
            "POSITION": 4,
            "TEXCOORD_0": 6
          },
          "indices": 7,
          "material": 1,
          "mode": 4
        }
      ]
    },
    {
      "name": "MatchaLatteMerged_LatteMAT1_0",
      "primitives": [
        {
          "attributes": {
            "NORMAL": 9,
            "POSITION": 8,
            "TEXCOORD_0": 10
          },
          "indices": 11,
          "material": 2,
          "mode": 4
        }
      ]
    }
  ],
  "nodes": [
    {
      "children": [
        1
      ],
      "matrix": [
        1.0,
        0.0,
        0.0,
        0.0,
        0.0,
        2.220446049250313e-16,
        -1.0,
        0.0,
        0.0,
        1.0,
        2.220446049250313e-16,
        0.0,
        0.0,
        0.0,
        0.0,
        1.0
      ],
      "name": "Sketchfab_model"
    },
    {
      "children": [
        2
      ],
      "matrix": [
        0.009999999776482582,
        0.0,
        0.0,
        0.0,
        0.0,
        0.0,
        0.009999999776482582,
        0.0,
        0.0,
        -0.009999999776482582,
        0.0,
        0.0,
        0.0,
        0.0,
        0.0,
        1.0
      ],
      "name": "e1cd6d3f7f6c4394957d7f539fa35abd.fbx"
    },
    {
      "children": [
        3
      ],
      "name": "RootNode"
    },
    {
      "children": [
        4,
        5,
        6
      ],
      "name": "MatchaLatteMerged"
    },
    {
      "mesh": 0,
      "name": "MatchaLatteMerged_Saucers_etcMAT1_0"
    },
    {
      "mesh": 1,
      "name": "MatchaLatteMerged_Saucers_etcMAT_0"
    },
    {
      "mesh": 2,
      "name": "MatchaLatteMerged_LatteMAT1_0"
    }
  ],
  "samplers": [
    {
      "magFilter": 9729,
      "minFilter": 9987,
      "wrapS": 10497,
      "wrapT": 10497
    }
  ],
  "scene": 0,
  "scenes": [
    {
      "name": "Sketchfab_Scene",
      "nodes": [
        0
      ]
    }
  ],
  "textures": [
    {
      "sampler": 0,
      "source": 0
    },
    {
      "sampler": 0,
      "source": 1
    }
  ]
}
