{"accessors" : [{"bufferView" : 0, "byteOffset" : 0, "componentType" : 5123, "count" : 59202, "type" : "SCALAR", "max" : [9872], "min" : [0]}, {"bufferView" : 1, "byteOffset" : 0, "componentType" : 5126, "count" : 9873, "type" : "VEC3", "max" : [5.417550086975098, 0.9359859824180603, 0.1518779993057251], "min" : [-5.417550086975098, -0.9359859824180603, -0.1518779993057251], "name" : "POSITION"}, {"bufferView" : 1, "byteOffset" : 12, "componentType" : 5126, "count" : 9873, "type" : "VEC3", "max" : [1.0000016689300537, 0.9999906420707703, 1.0000044107437134], "min" : [-0.9999986886978149, -0.9999992847442627, -1.0000044107437134], "name" : "NORMAL"}], "asset" : {"generator" : "Aspose.3D 24.6.0", "version" : "2.0"}, "buffers" : [{"uri" : "buffer.bin", "byteLength" : 355364}], "bufferViews" : [{"buffer" : 0, "byteOffset" : 0, "byteLength" : 118404, "target" : 34963}, {"buffer" : 0, "byteOffset" : 118408, "byteLength" : 236952, "byteStride" : 24, "target" : 34962}], "meshes" : [{"primitives" : [{"attributes" : {"POSITION" : 1, "NORMAL" : 2}, "indices" : 0, "mode" : 4}], "name" : ""}], "nodes" : [{"mesh" : 0, "name" : "typeMesh1"}], "scene" : 0, "scenes" : [{"nodes" : [0]}]}